%TF.GenerationSoftware,KiCad,Pcbnew,8.0.1*%
%TF.CreationDate,2024-03-28T20:51:12+01:00*%
%TF.ProjectId,espVent,65737056-656e-4742-9e6b-696361645f70,rev?*%
%TF.SameCoordinates,Original*%
%TF.FileFunction,Copper,L2,Bot*%
%TF.FilePolarity,Positive*%
%FSLAX46Y46*%
G04 Gerber Fmt 4.6, Leading zero omitted, Abs format (unit mm)*
G04 Created by KiCad (PCBNEW 8.0.1) date 2024-03-28 20:51:12*
%MOMM*%
%LPD*%
G01*
G04 APERTURE LIST*
%ADD10C,0.300000*%
%TA.AperFunction,NonConductor*%
%ADD11C,0.300000*%
%TD*%
%ADD12C,0.400000*%
%TA.AperFunction,NonConductor*%
%ADD13C,0.400000*%
%TD*%
%ADD14C,0.500000*%
%TA.AperFunction,NonConductor*%
%ADD15C,0.500000*%
%TD*%
%TA.AperFunction,ComponentPad*%
%ADD16C,3.000000*%
%TD*%
%TA.AperFunction,ComponentPad*%
%ADD17O,3.000000X3.000000*%
%TD*%
%TA.AperFunction,ComponentPad*%
%ADD18R,2.200000X3.000000*%
%TD*%
%TA.AperFunction,ComponentPad*%
%ADD19O,2.200000X3.000000*%
%TD*%
%TA.AperFunction,ComponentPad*%
%ADD20R,2.000000X4.000000*%
%TD*%
%TA.AperFunction,ComponentPad*%
%ADD21O,2.000000X4.000000*%
%TD*%
%TA.AperFunction,ComponentPad*%
%ADD22R,2.000000X3.000000*%
%TD*%
%TA.AperFunction,ComponentPad*%
%ADD23O,2.000000X3.000000*%
%TD*%
%TA.AperFunction,ComponentPad*%
%ADD24R,2.200000X2.200000*%
%TD*%
%TA.AperFunction,ComponentPad*%
%ADD25O,2.200000X2.200000*%
%TD*%
%TA.AperFunction,ComponentPad*%
%ADD26C,2.200000*%
%TD*%
%TA.AperFunction,ComponentPad*%
%ADD27C,2.000000*%
%TD*%
%TA.AperFunction,ComponentPad*%
%ADD28R,1.100000X3.000000*%
%TD*%
%TA.AperFunction,ComponentPad*%
%ADD29O,1.100000X3.000000*%
%TD*%
%TA.AperFunction,ComponentPad*%
%ADD30R,4.000000X2.100000*%
%TD*%
%TA.AperFunction,ComponentPad*%
%ADD31O,4.000000X2.000000*%
%TD*%
%TA.AperFunction,Conductor*%
%ADD32C,1.000000*%
%TD*%
%TA.AperFunction,Conductor*%
%ADD33C,1.500000*%
%TD*%
G04 APERTURE END LIST*
D10*
D11*
X165945489Y-89229400D02*
X164802632Y-89229400D01*
X165374060Y-89800828D02*
X165374060Y-88657971D01*
D10*
D11*
X100159774Y-91800828D02*
X99874060Y-91800828D01*
X99874060Y-91800828D02*
X99731203Y-91872257D01*
X99731203Y-91872257D02*
X99588346Y-92015114D01*
X99588346Y-92015114D02*
X99516917Y-92300828D01*
X99516917Y-92300828D02*
X99516917Y-92800828D01*
X99516917Y-92800828D02*
X99588346Y-93086542D01*
X99588346Y-93086542D02*
X99731203Y-93229400D01*
X99731203Y-93229400D02*
X99874060Y-93300828D01*
X99874060Y-93300828D02*
X100159774Y-93300828D01*
X100159774Y-93300828D02*
X100302632Y-93229400D01*
X100302632Y-93229400D02*
X100445489Y-93086542D01*
X100445489Y-93086542D02*
X100516917Y-92800828D01*
X100516917Y-92800828D02*
X100516917Y-92300828D01*
X100516917Y-92300828D02*
X100445489Y-92015114D01*
X100445489Y-92015114D02*
X100302632Y-91872257D01*
X100302632Y-91872257D02*
X100159774Y-91800828D01*
X98874060Y-91800828D02*
X98874060Y-93015114D01*
X98874060Y-93015114D02*
X98802631Y-93157971D01*
X98802631Y-93157971D02*
X98731203Y-93229400D01*
X98731203Y-93229400D02*
X98588345Y-93300828D01*
X98588345Y-93300828D02*
X98302631Y-93300828D01*
X98302631Y-93300828D02*
X98159774Y-93229400D01*
X98159774Y-93229400D02*
X98088345Y-93157971D01*
X98088345Y-93157971D02*
X98016917Y-93015114D01*
X98016917Y-93015114D02*
X98016917Y-91800828D01*
X97516916Y-91800828D02*
X96659774Y-91800828D01*
X97088345Y-93300828D02*
X97088345Y-91800828D01*
D10*
D11*
X103945489Y-93300828D02*
X103945489Y-91800828D01*
X103231203Y-93300828D02*
X103231203Y-91800828D01*
X103231203Y-91800828D02*
X102374060Y-93300828D01*
X102374060Y-93300828D02*
X102374060Y-91800828D01*
D10*
D11*
X174229400Y-80554510D02*
X174229400Y-81697368D01*
D10*
D11*
X155229400Y-88554510D02*
X155229400Y-89697368D01*
D10*
D11*
X174229400Y-88554510D02*
X174229400Y-89697368D01*
D10*
D11*
X174229400Y-72554510D02*
X174229400Y-73697368D01*
D10*
D11*
X165945489Y-81229400D02*
X164802632Y-81229400D01*
X165374060Y-81800828D02*
X165374060Y-80657971D01*
D12*
D13*
X70972533Y-89239347D02*
X70972533Y-90763157D01*
X71734438Y-90001252D02*
X70210628Y-90001252D01*
X71734438Y-92763156D02*
X71734438Y-91620299D01*
X71734438Y-92191727D02*
X69734438Y-92191727D01*
X69734438Y-92191727D02*
X70020152Y-92001251D01*
X70020152Y-92001251D02*
X70210628Y-91810775D01*
X70210628Y-91810775D02*
X70305866Y-91620299D01*
X69924914Y-93525061D02*
X69829676Y-93620299D01*
X69829676Y-93620299D02*
X69734438Y-93810775D01*
X69734438Y-93810775D02*
X69734438Y-94286966D01*
X69734438Y-94286966D02*
X69829676Y-94477442D01*
X69829676Y-94477442D02*
X69924914Y-94572680D01*
X69924914Y-94572680D02*
X70115390Y-94667918D01*
X70115390Y-94667918D02*
X70305866Y-94667918D01*
X70305866Y-94667918D02*
X70591580Y-94572680D01*
X70591580Y-94572680D02*
X71734438Y-93429823D01*
X71734438Y-93429823D02*
X71734438Y-94667918D01*
X69734438Y-95239347D02*
X71734438Y-95906013D01*
X71734438Y-95906013D02*
X69734438Y-96572680D01*
D10*
D11*
X155229400Y-72554510D02*
X155229400Y-73697368D01*
D10*
D11*
X174229400Y-64554510D02*
X174229400Y-65697368D01*
D10*
D11*
X89945489Y-93300828D02*
X89945489Y-91800828D01*
X89231203Y-93300828D02*
X89231203Y-91800828D01*
X89231203Y-91800828D02*
X88374060Y-93300828D01*
X88374060Y-93300828D02*
X88374060Y-91800828D01*
D10*
D11*
X165945489Y-65229400D02*
X164802632Y-65229400D01*
X165374060Y-65800828D02*
X165374060Y-64657971D01*
D10*
D11*
X114159774Y-91800828D02*
X113874060Y-91800828D01*
X113874060Y-91800828D02*
X113731203Y-91872257D01*
X113731203Y-91872257D02*
X113588346Y-92015114D01*
X113588346Y-92015114D02*
X113516917Y-92300828D01*
X113516917Y-92300828D02*
X113516917Y-92800828D01*
X113516917Y-92800828D02*
X113588346Y-93086542D01*
X113588346Y-93086542D02*
X113731203Y-93229400D01*
X113731203Y-93229400D02*
X113874060Y-93300828D01*
X113874060Y-93300828D02*
X114159774Y-93300828D01*
X114159774Y-93300828D02*
X114302632Y-93229400D01*
X114302632Y-93229400D02*
X114445489Y-93086542D01*
X114445489Y-93086542D02*
X114516917Y-92800828D01*
X114516917Y-92800828D02*
X114516917Y-92300828D01*
X114516917Y-92300828D02*
X114445489Y-92015114D01*
X114445489Y-92015114D02*
X114302632Y-91872257D01*
X114302632Y-91872257D02*
X114159774Y-91800828D01*
X112874060Y-91800828D02*
X112874060Y-93015114D01*
X112874060Y-93015114D02*
X112802631Y-93157971D01*
X112802631Y-93157971D02*
X112731203Y-93229400D01*
X112731203Y-93229400D02*
X112588345Y-93300828D01*
X112588345Y-93300828D02*
X112302631Y-93300828D01*
X112302631Y-93300828D02*
X112159774Y-93229400D01*
X112159774Y-93229400D02*
X112088345Y-93157971D01*
X112088345Y-93157971D02*
X112016917Y-93015114D01*
X112016917Y-93015114D02*
X112016917Y-91800828D01*
X111516916Y-91800828D02*
X110659774Y-91800828D01*
X111088345Y-93300828D02*
X111088345Y-91800828D01*
D10*
D11*
X165945489Y-73229400D02*
X164802632Y-73229400D01*
X165374060Y-73800828D02*
X165374060Y-72657971D01*
D10*
D11*
X160445489Y-72729400D02*
X159302632Y-72729400D01*
X159874060Y-73300828D02*
X159874060Y-72157971D01*
D10*
D11*
X155229400Y-80554510D02*
X155229400Y-81697368D01*
D14*
D15*
X81964000Y-91543232D02*
X81964000Y-93828947D01*
D16*
%TO.P,R3,1*%
%TO.N,Net-(U1-D0)*%
X117080000Y-64000000D03*
D17*
%TO.P,R3,2*%
%TO.N,Net-(D3-A)*%
X106920000Y-64000000D03*
%TD*%
D18*
%TO.P,D3,1,K*%
%TO.N,GND*%
X97225000Y-71000000D03*
D19*
%TO.P,D3,2,A*%
%TO.N,Net-(D3-A)*%
X99765000Y-71000000D03*
%TD*%
D20*
%TO.P,J9,1,Pin_1*%
%TO.N,+12V*%
X92380000Y-92712500D03*
D21*
%TO.P,J9,2,Pin_2*%
%TO.N,Net-(D2-A)*%
X94920000Y-92712500D03*
%TD*%
D22*
%TO.P,J4,1,Pin_1*%
%TO.N,GND*%
X172500000Y-91000000D03*
D23*
%TO.P,J4,2,Pin_2*%
%TO.N,Net-(J1-Pin_2)*%
X169960000Y-91000000D03*
%TO.P,J4,3,Pin_3*%
%TO.N,+5P*%
X167420000Y-91000000D03*
%TD*%
D24*
%TO.P,D2,1,K*%
%TO.N,+12V*%
X88420000Y-87500000D03*
D25*
%TO.P,D2,2,A*%
%TO.N,Net-(D2-A)*%
X98580000Y-87500000D03*
%TD*%
D16*
%TO.P,R2,1*%
%TO.N,Net-(U1-SCK{slash}D5)*%
X91000000Y-59920000D03*
D17*
%TO.P,R2,2*%
%TO.N,GND*%
X91000000Y-70080000D03*
%TD*%
D26*
%TO.P,C1,1*%
%TO.N,+12V*%
X76340000Y-84712500D03*
D27*
%TO.P,C1,2*%
%TO.N,GND*%
X78840000Y-84712500D03*
%TD*%
D20*
%TO.P,Q1,1,G*%
%TO.N,Net-(Q1-G)*%
X105920000Y-78792500D03*
D21*
%TO.P,Q1,2,D*%
%TO.N,Net-(D1-A)*%
X108460000Y-78792500D03*
%TO.P,Q1,3,S*%
%TO.N,GND*%
X111000000Y-78792500D03*
%TD*%
D24*
%TO.P,D1,1,K*%
%TO.N,+12V*%
X102420000Y-87500000D03*
D25*
%TO.P,D1,2,A*%
%TO.N,Net-(D1-A)*%
X112580000Y-87500000D03*
%TD*%
D20*
%TO.P,J8,1,Pin_1*%
%TO.N,+12V*%
X106380000Y-92712500D03*
D21*
%TO.P,J8,2,Pin_2*%
%TO.N,Net-(D1-A)*%
X108920000Y-92712500D03*
%TD*%
D20*
%TO.P,J7,1,Pin_1*%
%TO.N,+12V*%
X76380000Y-92712500D03*
D21*
%TO.P,J7,2,Pin_2*%
%TO.N,GND*%
X78920000Y-92712500D03*
%TD*%
D28*
%TO.P,U4,1,GND*%
%TO.N,GND*%
X156460000Y-91000000D03*
D29*
%TO.P,U4,2,DQ*%
%TO.N,Net-(J1-Pin_2)*%
X157730000Y-91000000D03*
%TO.P,U4,3,V_{DD}*%
%TO.N,+5P*%
X159000000Y-91000000D03*
%TD*%
D30*
%TO.P,U1,1,~{RST}*%
%TO.N,unconnected-(U1-~{RST}-Pad1)*%
X123140000Y-68110000D03*
D31*
%TO.P,U1,2,A0*%
%TO.N,unconnected-(U1-A0-Pad2)*%
X123140000Y-70650000D03*
%TO.P,U1,3,D0*%
%TO.N,Net-(U1-D0)*%
X123140000Y-73190000D03*
%TO.P,U1,4,SCK/D5*%
%TO.N,Net-(U1-SCK{slash}D5)*%
X123140000Y-75730000D03*
%TO.P,U1,5,MISO/D6*%
%TO.N,Net-(Q2-G)*%
X123140000Y-78270000D03*
%TO.P,U1,6,MOSI/D7*%
%TO.N,Net-(Q1-G)*%
X123140000Y-80810000D03*
%TO.P,U1,7,CS/D8*%
%TO.N,unconnected-(U1-CS{slash}D8-Pad7)*%
X123140000Y-83350000D03*
%TO.P,U1,8,3V3*%
%TO.N,unconnected-(U1-3V3-Pad8)*%
X123140000Y-85890000D03*
%TO.P,U1,9,5V*%
%TO.N,+5P*%
X146000000Y-85890000D03*
%TO.P,U1,10,GND*%
%TO.N,GND*%
X146000000Y-83350000D03*
%TO.P,U1,11,D4*%
%TO.N,unconnected-(U1-D4-Pad11)*%
X146000000Y-80810000D03*
%TO.P,U1,12,D3*%
%TO.N,unconnected-(U1-D3-Pad12)*%
X146000000Y-78270000D03*
%TO.P,U1,13,SDA/D2*%
%TO.N,Net-(J1-Pin_2)*%
X146000000Y-75730000D03*
%TO.P,U1,14,SCL/D1*%
%TO.N,unconnected-(U1-SCL{slash}D1-Pad14)*%
X146000000Y-73190000D03*
%TO.P,U1,15,RX*%
%TO.N,unconnected-(U1-RX-Pad15)*%
X146000000Y-70650000D03*
%TO.P,U1,16,TX*%
%TO.N,unconnected-(U1-TX-Pad16)*%
X146000000Y-68110000D03*
%TD*%
D22*
%TO.P,J1,1,Pin_1*%
%TO.N,GND*%
X172525000Y-67025000D03*
D23*
%TO.P,J1,2,Pin_2*%
%TO.N,Net-(J1-Pin_2)*%
X169985000Y-67025000D03*
%TO.P,J1,3,Pin_3*%
%TO.N,+5P*%
X167445000Y-67025000D03*
%TD*%
D16*
%TO.P,SW1,1,1*%
%TO.N,Net-(U1-SCK{slash}D5)*%
X95250000Y-59750000D03*
X101750000Y-59750000D03*
%TO.P,SW1,2,2*%
%TO.N,+5P*%
X95250000Y-64250000D03*
X101750000Y-64250000D03*
%TD*%
D22*
%TO.P,J2,1,Pin_1*%
%TO.N,GND*%
X172525000Y-75000000D03*
D23*
%TO.P,J2,2,Pin_2*%
%TO.N,Net-(J1-Pin_2)*%
X169985000Y-75000000D03*
%TO.P,J2,3,Pin_3*%
%TO.N,+5P*%
X167445000Y-75000000D03*
%TD*%
D28*
%TO.P,U2,1,GND*%
%TO.N,GND*%
X156460000Y-75000000D03*
D29*
%TO.P,U2,2,DQ*%
%TO.N,Net-(J1-Pin_2)*%
X157730000Y-75000000D03*
%TO.P,U2,3,V_{DD}*%
%TO.N,+5P*%
X159000000Y-75000000D03*
%TD*%
D28*
%TO.P,U3,1,GND*%
%TO.N,GND*%
X156460000Y-83000000D03*
D29*
%TO.P,U3,2,DQ*%
%TO.N,Net-(J1-Pin_2)*%
X157730000Y-83000000D03*
%TO.P,U3,3,V_{DD}*%
%TO.N,+5P*%
X159000000Y-83000000D03*
%TD*%
D16*
%TO.P,R1,1*%
%TO.N,+5P*%
X167080000Y-62000000D03*
D17*
%TO.P,R1,2*%
%TO.N,Net-(J1-Pin_2)*%
X156920000Y-62000000D03*
%TD*%
D20*
%TO.P,U5,1,IN*%
%TO.N,+12V*%
X76460000Y-78712500D03*
D21*
%TO.P,U5,2,GND*%
%TO.N,GND*%
X79000000Y-78712500D03*
%TO.P,U5,3,OUT*%
%TO.N,+5P*%
X81540000Y-78712500D03*
%TD*%
D20*
%TO.P,Q2,1,G*%
%TO.N,Net-(Q2-G)*%
X96000000Y-78500000D03*
D21*
%TO.P,Q2,2,D*%
%TO.N,Net-(D2-A)*%
X93460000Y-78500000D03*
%TO.P,Q2,3,S*%
%TO.N,GND*%
X90920000Y-78500000D03*
%TD*%
D26*
%TO.P,C2,1*%
%TO.N,+5P*%
X81840000Y-71712500D03*
D27*
%TO.P,C2,2*%
%TO.N,GND*%
X79340000Y-71712500D03*
%TD*%
D22*
%TO.P,J3,1,Pin_1*%
%TO.N,GND*%
X172500000Y-83000000D03*
D23*
%TO.P,J3,2,Pin_2*%
%TO.N,Net-(J1-Pin_2)*%
X169960000Y-83000000D03*
%TO.P,J3,3,Pin_3*%
%TO.N,+5P*%
X167420000Y-83000000D03*
%TD*%
D32*
%TO.N,Net-(D3-A)*%
X106000000Y-71000000D02*
X107000000Y-70000000D01*
X99765000Y-71000000D02*
X106000000Y-71000000D01*
X107000000Y-70000000D02*
X107000000Y-69000000D01*
X107000000Y-69000000D02*
X106920000Y-68920000D01*
X106920000Y-68920000D02*
X106920000Y-64000000D01*
%TO.N,GND*%
X97225000Y-71000000D02*
X91920000Y-71000000D01*
X91920000Y-71000000D02*
X91000000Y-70080000D01*
%TO.N,Net-(Q2-G)*%
X96000000Y-78500000D02*
X101500000Y-78500000D01*
X118270000Y-78270000D02*
X123140000Y-78270000D01*
X101500000Y-78500000D02*
X106000000Y-74000000D01*
X106000000Y-74000000D02*
X114000000Y-74000000D01*
X114000000Y-74000000D02*
X118270000Y-78270000D01*
%TO.N,Net-(U1-SCK{slash}D5)*%
X123140000Y-75730000D02*
X119230000Y-75730000D01*
X119230000Y-75730000D02*
X112500000Y-69000000D01*
X112500000Y-61000000D02*
X111000000Y-59500000D01*
X112500000Y-69000000D02*
X112500000Y-61000000D01*
X111000000Y-59500000D02*
X102000000Y-59500000D01*
X102000000Y-59500000D02*
X101750000Y-59750000D01*
%TO.N,Net-(U1-D0)*%
X117080000Y-64000000D02*
X117080000Y-70080000D01*
X117080000Y-70080000D02*
X120190000Y-73190000D01*
X120190000Y-73190000D02*
X123140000Y-73190000D01*
D33*
%TO.N,GND*%
X90920000Y-78500000D02*
X90920000Y-72000000D01*
X90920000Y-72000000D02*
X90920000Y-70160000D01*
%TO.N,+5P*%
X167445000Y-67025000D02*
X167445000Y-75000000D01*
X146000000Y-85890000D02*
X149890000Y-85890000D01*
X174000000Y-62000000D02*
X167080000Y-62000000D01*
X167000000Y-58500000D02*
X167000000Y-60000000D01*
X151500000Y-96500000D02*
X154000000Y-99000000D01*
X83250000Y-58750000D02*
X85000000Y-57000000D01*
X83250000Y-64250000D02*
X83250000Y-58750000D01*
X81840000Y-78412500D02*
X81540000Y-78712500D01*
X167080000Y-62000000D02*
X167080000Y-66660000D01*
X167000000Y-60000000D02*
X167080000Y-60080000D01*
X85000000Y-57000000D02*
X165500000Y-57000000D01*
X149890000Y-85890000D02*
X151500000Y-87500000D01*
X81840000Y-71712500D02*
X81840000Y-65660000D01*
X167445000Y-82975000D02*
X167420000Y-83000000D01*
X165500000Y-57000000D02*
X167000000Y-58500000D01*
X175500000Y-97000000D02*
X175500000Y-63500000D01*
D32*
X159000000Y-75000000D02*
X159000000Y-83000000D01*
D33*
X151500000Y-87500000D02*
X151500000Y-96500000D01*
X81840000Y-65660000D02*
X83250000Y-64250000D01*
X154000000Y-99000000D02*
X173500000Y-99000000D01*
X167080000Y-66660000D02*
X167445000Y-67025000D01*
X81840000Y-71712500D02*
X81840000Y-78412500D01*
X83250000Y-64250000D02*
X95250000Y-64250000D01*
D32*
X159000000Y-83000000D02*
X167420000Y-83000000D01*
D33*
X167420000Y-83000000D02*
X167420000Y-91000000D01*
D32*
X101750000Y-64250000D02*
X95250000Y-64250000D01*
D33*
X167080000Y-60080000D02*
X167080000Y-62000000D01*
X173500000Y-99000000D02*
X175500000Y-97000000D01*
X167445000Y-75000000D02*
X167445000Y-82975000D01*
D32*
X159000000Y-83000000D02*
X159000000Y-91000000D01*
D33*
X175500000Y-63500000D02*
X174000000Y-62000000D01*
%TO.N,+12V*%
X92380000Y-88380000D02*
X91500000Y-87500000D01*
X105000000Y-96500000D02*
X92500000Y-96500000D01*
X92380000Y-92712500D02*
X92380000Y-96380000D01*
X76340000Y-84712500D02*
X76340000Y-92672500D01*
X76340000Y-92672500D02*
X76380000Y-92712500D01*
X106380000Y-92712500D02*
X106380000Y-95120000D01*
X77500000Y-96500000D02*
X76380000Y-95380000D01*
X92500000Y-96500000D02*
X77500000Y-96500000D01*
X92380000Y-96380000D02*
X92500000Y-96500000D01*
X106380000Y-88380000D02*
X105500000Y-87500000D01*
X91500000Y-87500000D02*
X88420000Y-87500000D01*
X106380000Y-92712500D02*
X106380000Y-88380000D01*
X106380000Y-95120000D02*
X105000000Y-96500000D01*
X105500000Y-87500000D02*
X102420000Y-87500000D01*
X92380000Y-92712500D02*
X92380000Y-88380000D01*
X76380000Y-95380000D02*
X76380000Y-92712500D01*
X76460000Y-84592500D02*
X76340000Y-84712500D01*
X76460000Y-78712500D02*
X76460000Y-84592500D01*
%TO.N,GND*%
X90920000Y-70160000D02*
X91000000Y-70080000D01*
D32*
X146000000Y-83350000D02*
X141650000Y-83350000D01*
D33*
X78920000Y-92712500D02*
X78920000Y-89000000D01*
D32*
X156460000Y-95460000D02*
X158000000Y-97000000D01*
D33*
X116000000Y-97500000D02*
X114500000Y-99000000D01*
X75000000Y-99000000D02*
X73000000Y-97000000D01*
X172525000Y-67025000D02*
X172525000Y-75000000D01*
D32*
X138500000Y-91000000D02*
X116000000Y-91000000D01*
X172500000Y-95500000D02*
X172500000Y-91000000D01*
D33*
X90920000Y-78500000D02*
X90920000Y-81080000D01*
X74500000Y-75000000D02*
X79000000Y-75000000D01*
D32*
X156460000Y-83000000D02*
X156460000Y-91000000D01*
D33*
X78840000Y-78872500D02*
X79000000Y-78712500D01*
X79000000Y-75000000D02*
X79000000Y-72052500D01*
X90920000Y-81080000D02*
X90000000Y-82000000D01*
X114500000Y-99000000D02*
X110000000Y-99000000D01*
D32*
X158000000Y-97000000D02*
X171000000Y-97000000D01*
D33*
X111000000Y-78792500D02*
X111000000Y-82500000D01*
X73000000Y-97000000D02*
X73000000Y-76500000D01*
D32*
X156460000Y-75000000D02*
X156460000Y-83000000D01*
D33*
X116000000Y-85500000D02*
X116000000Y-91000000D01*
X114500000Y-84000000D02*
X116000000Y-85500000D01*
X172525000Y-75000000D02*
X172525000Y-82975000D01*
D32*
X146000000Y-83350000D02*
X156110000Y-83350000D01*
D33*
X111000000Y-82500000D02*
X112500000Y-84000000D01*
D32*
X156110000Y-83350000D02*
X156460000Y-83000000D01*
D33*
X112500000Y-84000000D02*
X114500000Y-84000000D01*
D32*
X141650000Y-83350000D02*
X140000000Y-85000000D01*
D33*
X116000000Y-91000000D02*
X116000000Y-97500000D01*
X78920000Y-89000000D02*
X78920000Y-84792500D01*
X78840000Y-82000000D02*
X78840000Y-78872500D01*
D32*
X140000000Y-85000000D02*
X140000000Y-89500000D01*
D33*
X172500000Y-83000000D02*
X172500000Y-91000000D01*
X73000000Y-76500000D02*
X74500000Y-75000000D01*
X79000000Y-78712500D02*
X79000000Y-75000000D01*
X79000000Y-72052500D02*
X79340000Y-71712500D01*
X78920000Y-84792500D02*
X78840000Y-84712500D01*
D32*
X140000000Y-89500000D02*
X138500000Y-91000000D01*
D33*
X110000000Y-99000000D02*
X75000000Y-99000000D01*
X172525000Y-82975000D02*
X172500000Y-83000000D01*
X78840000Y-84712500D02*
X78840000Y-82000000D01*
D32*
X156460000Y-91000000D02*
X156460000Y-95460000D01*
D33*
X90000000Y-82000000D02*
X78840000Y-82000000D01*
D32*
X171000000Y-97000000D02*
X172500000Y-95500000D01*
D33*
%TO.N,Net-(D1-A)*%
X108920000Y-82920000D02*
X108460000Y-82460000D01*
X108920000Y-87500000D02*
X108920000Y-82920000D01*
X108460000Y-82460000D02*
X108460000Y-78792500D01*
X108580000Y-78672500D02*
X108460000Y-78792500D01*
X108920000Y-92712500D02*
X108920000Y-87500000D01*
X112580000Y-87500000D02*
X108920000Y-87500000D01*
%TO.N,Net-(J1-Pin_2)*%
X169985000Y-75000000D02*
X169985000Y-82975000D01*
X169960000Y-83000000D02*
X169960000Y-91000000D01*
D32*
X157730000Y-83000000D02*
X157730000Y-75000000D01*
X157730000Y-91000000D02*
X157730000Y-93730000D01*
X151500000Y-70500000D02*
X152500000Y-69500000D01*
X170000000Y-91040000D02*
X169960000Y-91000000D01*
X157730000Y-93730000D02*
X159000000Y-95000000D01*
X146000000Y-75730000D02*
X150270000Y-75730000D01*
X159000000Y-95000000D02*
X168500000Y-95000000D01*
X157730000Y-69500000D02*
X157730000Y-62810000D01*
X150270000Y-75730000D02*
X151500000Y-74500000D01*
X157730000Y-62810000D02*
X156920000Y-62000000D01*
X168500000Y-95000000D02*
X170000000Y-93500000D01*
X170000000Y-93500000D02*
X170000000Y-91040000D01*
X152500000Y-69500000D02*
X157730000Y-69500000D01*
D33*
X169985000Y-82975000D02*
X169960000Y-83000000D01*
X169985000Y-67025000D02*
X169985000Y-75000000D01*
D32*
X157730000Y-91000000D02*
X157730000Y-83000000D01*
X151500000Y-74500000D02*
X151500000Y-70500000D01*
X157730000Y-75000000D02*
X157730000Y-69500000D01*
D33*
%TO.N,Net-(U1-SCK{slash}D5)*%
X91000000Y-59920000D02*
X95080000Y-59920000D01*
X95080000Y-59920000D02*
X95250000Y-59750000D01*
D32*
X101750000Y-59750000D02*
X95250000Y-59750000D01*
D33*
%TO.N,Net-(D2-A)*%
X93460000Y-78500000D02*
X93420000Y-78540000D01*
X94920000Y-83920000D02*
X93460000Y-82460000D01*
X93460000Y-82460000D02*
X93460000Y-78500000D01*
X94920000Y-87500000D02*
X94920000Y-83920000D01*
X98580000Y-87500000D02*
X94920000Y-87500000D01*
X94920000Y-92712500D02*
X94920000Y-87500000D01*
D32*
%TO.N,Net-(Q1-G)*%
X113500000Y-80000000D02*
X113500000Y-77000000D01*
X113500000Y-77000000D02*
X112000000Y-75500000D01*
X105920000Y-77080000D02*
X105920000Y-78792500D01*
X123140000Y-80810000D02*
X114310000Y-80810000D01*
X114310000Y-80810000D02*
X113500000Y-80000000D01*
X107500000Y-75500000D02*
X105920000Y-77080000D01*
X112000000Y-75500000D02*
X107500000Y-75500000D01*
%TD*%
%TA.AperFunction,Conductor*%
%TO.N,GND*%
G36*
X89704903Y-67020689D02*
G01*
X89868323Y-67080169D01*
X90013620Y-67175733D01*
X90132962Y-67302228D01*
X90219916Y-67452836D01*
X90269793Y-67619438D01*
X90279905Y-67793050D01*
X90249706Y-67964316D01*
X90180825Y-68124000D01*
X90076975Y-68263495D01*
X89943754Y-68375280D01*
X89937116Y-68379596D01*
X89915959Y-68393192D01*
X89686936Y-68564636D01*
X89484636Y-68766936D01*
X89313197Y-68995953D01*
X89313192Y-68995960D01*
X89176089Y-69247046D01*
X89145149Y-69330000D01*
X92854851Y-69330000D01*
X92823910Y-69247046D01*
X92686807Y-68995960D01*
X92686802Y-68995953D01*
X92515363Y-68766936D01*
X92313063Y-68564636D01*
X92084040Y-68393192D01*
X92062884Y-68379596D01*
X91928489Y-68269225D01*
X91823170Y-68130836D01*
X91752605Y-67971888D01*
X91720597Y-67800952D01*
X91728873Y-67627242D01*
X91776987Y-67460123D01*
X91862343Y-67308604D01*
X91980342Y-67180854D01*
X92124621Y-67083760D01*
X92287402Y-67022556D01*
X92459911Y-67000542D01*
X92467828Y-67000500D01*
X92836341Y-67000500D01*
X93009072Y-67020689D01*
X93172492Y-67080169D01*
X93244275Y-67121335D01*
X93485589Y-67278046D01*
X93497348Y-67285682D01*
X93824264Y-67452255D01*
X94013772Y-67525000D01*
X94166800Y-67583742D01*
X94521197Y-67678703D01*
X94521201Y-67678703D01*
X94521206Y-67678705D01*
X94656106Y-67700071D01*
X94883580Y-67736100D01*
X94883589Y-67736101D01*
X94883590Y-67736101D01*
X94883596Y-67736102D01*
X95250000Y-67755304D01*
X95324746Y-67751386D01*
X95339342Y-67750622D01*
X95512893Y-67761743D01*
X95679201Y-67812588D01*
X95829301Y-67900416D01*
X95955101Y-68020492D01*
X96049817Y-68166343D01*
X96108346Y-68330105D01*
X96127530Y-68502951D01*
X96106337Y-68675562D01*
X96045908Y-68838633D01*
X95949501Y-68983372D01*
X95827408Y-69098196D01*
X95767812Y-69142809D01*
X95767808Y-69142813D01*
X95681646Y-69257910D01*
X95631401Y-69392624D01*
X95625001Y-69452156D01*
X95625000Y-69452177D01*
X95625000Y-70250000D01*
X95915500Y-70250000D01*
X96088231Y-70270189D01*
X96251651Y-70329669D01*
X96396948Y-70425233D01*
X96516290Y-70551728D01*
X96603244Y-70702336D01*
X96653121Y-70868938D01*
X96664500Y-70999000D01*
X96664500Y-71001000D01*
X96644311Y-71173731D01*
X96584831Y-71337151D01*
X96489267Y-71482448D01*
X96362772Y-71601790D01*
X96212164Y-71688744D01*
X96045562Y-71738621D01*
X95915500Y-71750000D01*
X95625000Y-71750000D01*
X95625000Y-72547822D01*
X95625001Y-72547843D01*
X95631401Y-72607375D01*
X95681646Y-72742089D01*
X95767808Y-72857186D01*
X95767813Y-72857191D01*
X95882910Y-72943353D01*
X96017624Y-72993598D01*
X96077156Y-72999998D01*
X96077177Y-73000000D01*
X96714570Y-73000000D01*
X96887301Y-73020189D01*
X97050721Y-73079669D01*
X97196018Y-73175233D01*
X97300011Y-73281818D01*
X97301208Y-73283318D01*
X97393167Y-73430923D01*
X97448608Y-73595756D01*
X97464540Y-73768932D01*
X97440106Y-73941114D01*
X97376623Y-74103020D01*
X97277513Y-74245922D01*
X97148118Y-74362115D01*
X96995416Y-74445336D01*
X96827638Y-74491098D01*
X96715767Y-74499500D01*
X94928552Y-74499500D01*
X94714572Y-74514804D01*
X94714568Y-74514804D01*
X94714566Y-74514805D01*
X94442771Y-74573930D01*
X94269695Y-74590919D01*
X94116901Y-74572269D01*
X93963394Y-74537233D01*
X93628504Y-74499500D01*
X93291496Y-74499500D01*
X92999246Y-74532428D01*
X92956614Y-74537232D01*
X92956613Y-74537232D01*
X92956606Y-74537233D01*
X92734907Y-74587834D01*
X92628045Y-74612224D01*
X92309948Y-74723531D01*
X92038780Y-74854119D01*
X92006314Y-74869754D01*
X92006310Y-74869756D01*
X92006309Y-74869757D01*
X91720964Y-75049051D01*
X91720952Y-75049060D01*
X91457481Y-75259170D01*
X91219172Y-75497479D01*
X91001592Y-75770317D01*
X90878111Y-75892776D01*
X90729718Y-75983457D01*
X90590860Y-76031626D01*
X90568755Y-76036933D01*
X90344196Y-76109897D01*
X90133832Y-76217083D01*
X89942814Y-76355865D01*
X89775865Y-76522814D01*
X89637083Y-76713832D01*
X89529897Y-76924196D01*
X89456935Y-77148749D01*
X89420000Y-77381949D01*
X89420000Y-77750000D01*
X89710500Y-77750000D01*
X89883231Y-77770189D01*
X90046651Y-77829669D01*
X90191948Y-77925233D01*
X90311290Y-78051728D01*
X90398244Y-78202336D01*
X90418229Y-78269092D01*
X90407482Y-78287708D01*
X90370000Y-78427591D01*
X90370000Y-78572409D01*
X90407482Y-78712292D01*
X90418395Y-78731195D01*
X90379831Y-78837151D01*
X90284267Y-78982448D01*
X90157772Y-79101790D01*
X90007164Y-79188744D01*
X89840562Y-79238621D01*
X89710500Y-79250000D01*
X89420000Y-79250000D01*
X89420000Y-79618050D01*
X89456935Y-79851250D01*
X89529897Y-80075803D01*
X89637083Y-80286167D01*
X89775865Y-80477185D01*
X89942814Y-80644134D01*
X90133829Y-80782915D01*
X90300537Y-80867856D01*
X90445276Y-80964263D01*
X90563881Y-81091450D01*
X90649957Y-81242561D01*
X90698865Y-81409450D01*
X90709500Y-81535221D01*
X90709500Y-82614465D01*
X90716351Y-82675267D01*
X90744088Y-82921451D01*
X90812829Y-83222628D01*
X90812832Y-83222637D01*
X90887647Y-83436444D01*
X90887647Y-83436445D01*
X90905104Y-83486334D01*
X90943098Y-83656040D01*
X90940930Y-83829934D01*
X90898718Y-83998640D01*
X90818737Y-84153064D01*
X90705300Y-84284881D01*
X90564522Y-84386985D01*
X90403991Y-84453870D01*
X90232363Y-84481932D01*
X90058889Y-84469656D01*
X90038928Y-84465598D01*
X89805430Y-84414804D01*
X89622348Y-84401710D01*
X89591448Y-84399500D01*
X87248552Y-84399500D01*
X87034572Y-84414804D01*
X87034568Y-84414804D01*
X87034566Y-84414805D01*
X86754956Y-84475629D01*
X86486845Y-84575630D01*
X86486832Y-84575636D01*
X86235692Y-84712769D01*
X86235686Y-84712773D01*
X86235685Y-84712774D01*
X86140419Y-84784089D01*
X86006601Y-84884264D01*
X85804264Y-85086601D01*
X85632769Y-85315692D01*
X85495636Y-85566832D01*
X85495630Y-85566845D01*
X85395629Y-85834956D01*
X85346702Y-86059876D01*
X85334804Y-86114572D01*
X85319500Y-86328552D01*
X85319500Y-88579486D01*
X85299311Y-88752217D01*
X85239831Y-88915637D01*
X85144267Y-89060934D01*
X85017772Y-89180276D01*
X84867164Y-89267230D01*
X84700562Y-89317107D01*
X84526950Y-89327219D01*
X84355684Y-89297020D01*
X84334152Y-89287732D01*
X84219500Y-89287732D01*
X79839500Y-89287732D01*
X79666769Y-89267543D01*
X79503349Y-89208063D01*
X79358052Y-89112499D01*
X79238710Y-88986004D01*
X79151756Y-88835396D01*
X79101879Y-88668794D01*
X79090500Y-88538732D01*
X79090500Y-86747197D01*
X79110689Y-86574466D01*
X79170169Y-86411046D01*
X79175958Y-86402244D01*
X79271368Y-85989816D01*
X79262754Y-85948098D01*
X79267812Y-85774264D01*
X79289229Y-85675287D01*
X79289865Y-85673081D01*
X79357126Y-85512709D01*
X79459559Y-85372169D01*
X79591641Y-85259041D01*
X79746252Y-85179423D01*
X79915057Y-85137606D01*
X80088955Y-85135845D01*
X80128984Y-85144905D01*
X80289005Y-85100844D01*
X80324611Y-84960244D01*
X80345140Y-84712500D01*
X80324612Y-84464760D01*
X80324610Y-84464750D01*
X80289005Y-84324154D01*
X80127417Y-84279662D01*
X80074809Y-84290525D01*
X79900976Y-84285466D01*
X79732995Y-84240454D01*
X79579922Y-84157916D01*
X79450010Y-84042302D01*
X79350262Y-83899845D01*
X79289790Y-83751657D01*
X79289151Y-83749439D01*
X79260752Y-83577872D01*
X79270750Y-83432502D01*
X79236658Y-83285145D01*
X79217394Y-83112308D01*
X79238508Y-82939688D01*
X79298861Y-82776589D01*
X79395201Y-82631805D01*
X79522334Y-82513142D01*
X79673405Y-82426996D01*
X79840271Y-82378011D01*
X80013936Y-82368829D01*
X80185037Y-82399944D01*
X80291361Y-82441492D01*
X80326779Y-82458548D01*
X80389949Y-82488969D01*
X80708046Y-82600276D01*
X81036606Y-82675267D01*
X81371496Y-82713000D01*
X81371502Y-82713000D01*
X81708498Y-82713000D01*
X81708504Y-82713000D01*
X82043394Y-82675267D01*
X82371954Y-82600276D01*
X82690051Y-82488969D01*
X82993686Y-82342746D01*
X83279039Y-82163446D01*
X83542523Y-81953325D01*
X83780825Y-81715023D01*
X83990946Y-81451539D01*
X84170246Y-81166186D01*
X84316469Y-80862551D01*
X84427776Y-80544454D01*
X84502767Y-80215894D01*
X84540500Y-79881004D01*
X84540500Y-79025862D01*
X84555231Y-78895139D01*
X84552393Y-78894657D01*
X84555910Y-78873955D01*
X84555911Y-78873952D01*
X84590500Y-78566965D01*
X84590500Y-73323185D01*
X84610689Y-73150454D01*
X84647512Y-73036560D01*
X84771121Y-72738144D01*
X84832487Y-72525140D01*
X84867523Y-72403529D01*
X84867524Y-72403521D01*
X84867527Y-72403513D01*
X84925859Y-72060193D01*
X84945385Y-71712500D01*
X84925859Y-71364807D01*
X84908476Y-71262500D01*
X84892073Y-71165958D01*
X84867527Y-71021487D01*
X84867525Y-71021481D01*
X84867523Y-71021470D01*
X84812361Y-70830000D01*
X89145149Y-70830000D01*
X89176089Y-70912953D01*
X89313192Y-71164039D01*
X89313197Y-71164046D01*
X89484636Y-71393063D01*
X89686936Y-71595363D01*
X89915953Y-71766802D01*
X89915966Y-71766811D01*
X90167043Y-71903908D01*
X90167042Y-71903908D01*
X90250000Y-71934849D01*
X90250000Y-70830000D01*
X91750000Y-70830000D01*
X91750000Y-71934849D01*
X91832957Y-71903908D01*
X92084033Y-71766811D01*
X92084046Y-71766802D01*
X92313063Y-71595363D01*
X92515363Y-71393063D01*
X92686802Y-71164046D01*
X92686807Y-71164039D01*
X92823910Y-70912953D01*
X92854851Y-70830000D01*
X91750000Y-70830000D01*
X90250000Y-70830000D01*
X89145149Y-70830000D01*
X84812361Y-70830000D01*
X84781734Y-70723694D01*
X84771121Y-70686856D01*
X84686384Y-70482282D01*
X84647514Y-70388442D01*
X84600065Y-70221133D01*
X84592973Y-70132661D01*
X90600000Y-70132661D01*
X90627259Y-70234394D01*
X90679920Y-70325606D01*
X90754394Y-70400080D01*
X90845606Y-70452741D01*
X90947339Y-70480000D01*
X91052661Y-70480000D01*
X91154394Y-70452741D01*
X91245606Y-70400080D01*
X91320080Y-70325606D01*
X91372741Y-70234394D01*
X91400000Y-70132661D01*
X91400000Y-70027339D01*
X91372741Y-69925606D01*
X91320080Y-69834394D01*
X91245606Y-69759920D01*
X91154394Y-69707259D01*
X91052661Y-69680000D01*
X90947339Y-69680000D01*
X90845606Y-69707259D01*
X90754394Y-69759920D01*
X90679920Y-69834394D01*
X90627259Y-69925606D01*
X90600000Y-70027339D01*
X90600000Y-70132661D01*
X84592973Y-70132661D01*
X84590500Y-70101812D01*
X84590500Y-67749500D01*
X84610689Y-67576769D01*
X84670169Y-67413349D01*
X84765733Y-67268052D01*
X84892228Y-67148710D01*
X85042836Y-67061756D01*
X85209438Y-67011879D01*
X85339500Y-67000500D01*
X89532172Y-67000500D01*
X89704903Y-67020689D01*
G37*
%TD.AperFunction*%
%TA.AperFunction,Conductor*%
G36*
X154653231Y-75873057D02*
G01*
X154816651Y-75932537D01*
X154961948Y-76028101D01*
X155081290Y-76154596D01*
X155168244Y-76305204D01*
X155218121Y-76471806D01*
X155229500Y-76601868D01*
X155229500Y-77650010D01*
X155209311Y-77822741D01*
X155149831Y-77986161D01*
X155054267Y-78131458D01*
X154927772Y-78250800D01*
X154777164Y-78337754D01*
X154610562Y-78387631D01*
X154480500Y-78399010D01*
X153073900Y-78399010D01*
X153073900Y-83375859D01*
X153053711Y-83548590D01*
X152994231Y-83712010D01*
X152898667Y-83857307D01*
X152772172Y-83976649D01*
X152621564Y-84063603D01*
X152454962Y-84113480D01*
X152281350Y-84123592D01*
X152110084Y-84093393D01*
X151950400Y-84024512D01*
X151810905Y-83920662D01*
X151795280Y-83905485D01*
X151725675Y-83835880D01*
X151484148Y-83643268D01*
X151484143Y-83643264D01*
X151222573Y-83478908D01*
X151222549Y-83478895D01*
X150944243Y-83344871D01*
X150944237Y-83344868D01*
X150944230Y-83344865D01*
X150944225Y-83344863D01*
X150944220Y-83344861D01*
X150868650Y-83318417D01*
X150868645Y-83318416D01*
X150652636Y-83242832D01*
X150652632Y-83242831D01*
X150652629Y-83242830D01*
X150652631Y-83242830D01*
X150351445Y-83174087D01*
X150300480Y-83168345D01*
X150131096Y-83128943D01*
X149975364Y-83051540D01*
X149841680Y-82940309D01*
X149737251Y-82801246D01*
X149667707Y-82641849D01*
X149636798Y-82470711D01*
X149646188Y-82297058D01*
X149695373Y-82130251D01*
X149709519Y-82099073D01*
X149776469Y-81960051D01*
X149887776Y-81641954D01*
X149962767Y-81313394D01*
X150000500Y-80978504D01*
X150000500Y-80641496D01*
X149962767Y-80306606D01*
X149887776Y-79978046D01*
X149821057Y-79787375D01*
X149783065Y-79617672D01*
X149785233Y-79443778D01*
X149821058Y-79292622D01*
X149887776Y-79101954D01*
X149959877Y-78786051D01*
X150017993Y-78622155D01*
X150112345Y-78476068D01*
X150237844Y-78355678D01*
X150387723Y-78267475D01*
X150553904Y-78216214D01*
X150606233Y-78208437D01*
X150689509Y-78199055D01*
X150963318Y-78136560D01*
X151205754Y-78051728D01*
X151228406Y-78043802D01*
X151474617Y-77925233D01*
X151481445Y-77921945D01*
X151719248Y-77772523D01*
X151857908Y-77661944D01*
X152005540Y-77570035D01*
X152170391Y-77514648D01*
X152214648Y-77510590D01*
X152227943Y-77435194D01*
X152296824Y-77275510D01*
X152400674Y-77136015D01*
X152415854Y-77120387D01*
X152886190Y-76650051D01*
X153367416Y-76168825D01*
X153384459Y-76147454D01*
X153394494Y-76134871D01*
X153517976Y-76012412D01*
X153666370Y-75921732D01*
X153831676Y-75867718D01*
X153980083Y-75852868D01*
X154480500Y-75852868D01*
X154653231Y-75873057D01*
G37*
%TD.AperFunction*%
%TA.AperFunction,Conductor*%
G36*
X189423731Y-39520189D02*
G01*
X189587151Y-39579669D01*
X189732448Y-39675233D01*
X189851790Y-39801728D01*
X189938744Y-39952336D01*
X189988621Y-40118938D01*
X190000000Y-40249000D01*
X190000000Y-110251000D01*
X189979811Y-110423731D01*
X189920331Y-110587151D01*
X189824767Y-110732448D01*
X189698272Y-110851790D01*
X189547664Y-110938744D01*
X189381062Y-110988621D01*
X189251000Y-111000000D01*
X57749000Y-111000000D01*
X57576269Y-110979811D01*
X57412849Y-110920331D01*
X57267552Y-110824767D01*
X57148210Y-110698272D01*
X57061256Y-110547664D01*
X57011379Y-110381062D01*
X57000000Y-110251000D01*
X57000000Y-98780484D01*
X67525115Y-98780484D01*
X73942242Y-98780484D01*
X73942242Y-98640282D01*
X73962431Y-98467551D01*
X74021911Y-98304131D01*
X74117475Y-98158834D01*
X74243970Y-98039492D01*
X74394578Y-97952538D01*
X74561180Y-97902661D01*
X74734792Y-97892549D01*
X74906058Y-97922748D01*
X75065742Y-97991629D01*
X75205237Y-98095479D01*
X75220865Y-98110659D01*
X75664328Y-98554122D01*
X75905855Y-98746734D01*
X75905857Y-98746735D01*
X76167435Y-98911095D01*
X76445770Y-99045135D01*
X76445773Y-99045136D01*
X76445775Y-99045137D01*
X76521353Y-99071583D01*
X76521354Y-99071583D01*
X76737366Y-99147169D01*
X77038548Y-99215911D01*
X77345535Y-99250500D01*
X77345541Y-99250500D01*
X105154459Y-99250500D01*
X105154465Y-99250500D01*
X105461452Y-99215911D01*
X105762636Y-99147168D01*
X105978645Y-99071583D01*
X106054230Y-99045135D01*
X106247138Y-98952235D01*
X106332549Y-98911104D01*
X106332553Y-98911101D01*
X106332565Y-98911096D01*
X106594143Y-98746735D01*
X106835674Y-98554120D01*
X108434121Y-96955674D01*
X108434121Y-96955673D01*
X108448981Y-96940814D01*
X108450674Y-96942507D01*
X108557821Y-96847557D01*
X108711066Y-96765341D01*
X108879142Y-96720683D01*
X108986144Y-96713000D01*
X109088498Y-96713000D01*
X109088504Y-96713000D01*
X109423394Y-96675267D01*
X109751954Y-96600276D01*
X110070051Y-96488969D01*
X110373686Y-96342746D01*
X110659039Y-96163446D01*
X110922523Y-95953325D01*
X111160825Y-95715023D01*
X111160830Y-95715017D01*
X111167132Y-95707966D01*
X111173724Y-95702123D01*
X111175685Y-95700163D01*
X111175803Y-95700281D01*
X111297283Y-95592622D01*
X111450527Y-95510402D01*
X111618601Y-95465738D01*
X111725623Y-95458053D01*
X116675121Y-95458053D01*
X116675121Y-89643603D01*
X116169005Y-89643603D01*
X115996274Y-89623414D01*
X115832854Y-89563934D01*
X115687557Y-89468370D01*
X115568215Y-89341875D01*
X115481261Y-89191267D01*
X115431384Y-89024665D01*
X115421272Y-88851053D01*
X115451471Y-88679787D01*
X115477020Y-88607972D01*
X115511120Y-88525646D01*
X115607523Y-88191029D01*
X115607524Y-88191021D01*
X115607527Y-88191013D01*
X115665859Y-87847693D01*
X115685385Y-87500000D01*
X115665859Y-87152307D01*
X115607527Y-86808987D01*
X115607525Y-86808981D01*
X115607523Y-86808970D01*
X115539962Y-86574466D01*
X115511121Y-86474356D01*
X115377855Y-86152624D01*
X115209405Y-85847836D01*
X115007888Y-85563824D01*
X115007887Y-85563823D01*
X115007885Y-85563820D01*
X114775844Y-85304166D01*
X114775833Y-85304155D01*
X114516179Y-85072114D01*
X114398767Y-84988806D01*
X114232164Y-84870595D01*
X113950707Y-84715040D01*
X113809300Y-84613819D01*
X113695043Y-84482712D01*
X113614101Y-84328790D01*
X113570838Y-84160350D01*
X113567586Y-83986473D01*
X113604520Y-83816533D01*
X113679649Y-83659692D01*
X113788924Y-83524404D01*
X113926453Y-83417964D01*
X114084821Y-83346108D01*
X114255491Y-83312712D01*
X114313017Y-83310500D01*
X114450425Y-83310500D01*
X118456014Y-83310500D01*
X118628745Y-83330689D01*
X118792165Y-83390169D01*
X118937462Y-83485733D01*
X119056804Y-83612228D01*
X119143758Y-83762836D01*
X119186232Y-83892825D01*
X119241311Y-84134140D01*
X119252224Y-84181953D01*
X119318942Y-84372625D01*
X119356934Y-84542331D01*
X119354765Y-84716225D01*
X119318942Y-84867375D01*
X119252224Y-85058044D01*
X119235383Y-85131833D01*
X119177233Y-85386606D01*
X119139500Y-85721496D01*
X119139500Y-86058504D01*
X119177233Y-86393394D01*
X119252224Y-86721954D01*
X119363531Y-87040051D01*
X119509754Y-87343686D01*
X119509757Y-87343690D01*
X119689051Y-87629035D01*
X119689060Y-87629047D01*
X119899170Y-87892518D01*
X120137481Y-88130829D01*
X120400952Y-88340939D01*
X120400961Y-88340946D01*
X120686314Y-88520246D01*
X120989949Y-88666469D01*
X121308046Y-88777776D01*
X121636606Y-88852767D01*
X121971496Y-88890500D01*
X121971502Y-88890500D01*
X124308498Y-88890500D01*
X124308504Y-88890500D01*
X124643394Y-88852767D01*
X124971954Y-88777776D01*
X125290051Y-88666469D01*
X125593686Y-88520246D01*
X125879039Y-88340946D01*
X126142523Y-88130825D01*
X126380825Y-87892523D01*
X126590946Y-87629039D01*
X126770246Y-87343686D01*
X126916469Y-87040051D01*
X127027776Y-86721954D01*
X127102767Y-86393394D01*
X127140500Y-86058504D01*
X127140500Y-85721496D01*
X127102767Y-85386606D01*
X127027776Y-85058046D01*
X126961057Y-84867375D01*
X126923065Y-84697672D01*
X126925233Y-84523778D01*
X126961058Y-84372622D01*
X126963797Y-84364794D01*
X127027776Y-84181954D01*
X127102767Y-83853394D01*
X127140500Y-83518504D01*
X127140500Y-83181496D01*
X127102767Y-82846606D01*
X127027776Y-82518046D01*
X126961057Y-82327375D01*
X126923065Y-82157672D01*
X126925233Y-81983778D01*
X126961058Y-81832622D01*
X126998824Y-81724693D01*
X127027776Y-81641954D01*
X127102767Y-81313394D01*
X127140500Y-80978504D01*
X127140500Y-80641496D01*
X127102767Y-80306606D01*
X127027776Y-79978046D01*
X126961057Y-79787375D01*
X126923065Y-79617672D01*
X126925233Y-79443778D01*
X126961058Y-79292622D01*
X127027776Y-79101954D01*
X127102767Y-78773394D01*
X127140500Y-78438504D01*
X127140500Y-78101496D01*
X127102767Y-77766606D01*
X127027776Y-77438046D01*
X126961057Y-77247375D01*
X126923065Y-77077672D01*
X126925233Y-76903778D01*
X126961058Y-76752622D01*
X127027776Y-76561954D01*
X127102767Y-76233394D01*
X127140500Y-75898504D01*
X127140500Y-75561496D01*
X127102767Y-75226606D01*
X127027776Y-74898046D01*
X126961057Y-74707375D01*
X126923065Y-74537672D01*
X126925233Y-74363778D01*
X126961058Y-74212622D01*
X127027776Y-74021954D01*
X127102767Y-73693394D01*
X127140500Y-73358504D01*
X127140500Y-73021496D01*
X127102767Y-72686606D01*
X127027776Y-72358046D01*
X126961057Y-72167375D01*
X126923065Y-71997672D01*
X126925233Y-71823778D01*
X126961058Y-71672622D01*
X127027776Y-71481954D01*
X127102767Y-71153394D01*
X127140500Y-70818504D01*
X127140500Y-70481496D01*
X127102767Y-70146606D01*
X127073301Y-70017506D01*
X127054548Y-69844613D01*
X127071639Y-69691629D01*
X127102418Y-69550135D01*
X127125196Y-69445428D01*
X127140500Y-69231448D01*
X127140500Y-67749000D01*
X127160689Y-67576269D01*
X127220169Y-67412849D01*
X127315733Y-67267552D01*
X127442228Y-67148210D01*
X127592836Y-67061256D01*
X127759438Y-67011379D01*
X127889500Y-67000000D01*
X141267450Y-67000000D01*
X141440181Y-67020189D01*
X141603601Y-67079669D01*
X141748898Y-67175233D01*
X141868240Y-67301728D01*
X141955194Y-67452336D01*
X142005071Y-67618938D01*
X142015183Y-67792550D01*
X142011740Y-67832861D01*
X142004129Y-67900416D01*
X141999500Y-67941496D01*
X141999500Y-68278504D01*
X142037233Y-68613394D01*
X142080510Y-68803003D01*
X142112224Y-68941955D01*
X142178942Y-69132625D01*
X142216934Y-69302331D01*
X142214765Y-69476225D01*
X142178942Y-69627375D01*
X142112224Y-69818044D01*
X142088314Y-69922802D01*
X142037233Y-70146606D01*
X141999500Y-70481496D01*
X141999500Y-70818504D01*
X142037233Y-71153394D01*
X142097931Y-71419333D01*
X142112224Y-71481955D01*
X142178942Y-71672625D01*
X142216934Y-71842331D01*
X142214765Y-72016225D01*
X142178942Y-72167375D01*
X142112224Y-72358044D01*
X142101843Y-72403529D01*
X142037233Y-72686606D01*
X141999500Y-73021496D01*
X141999500Y-73358504D01*
X142037233Y-73693394D01*
X142091837Y-73932630D01*
X142112224Y-74021955D01*
X142178942Y-74212625D01*
X142216934Y-74382331D01*
X142214765Y-74556225D01*
X142178942Y-74707375D01*
X142112224Y-74898044D01*
X142112224Y-74898045D01*
X142112224Y-74898046D01*
X142037233Y-75226606D01*
X141999500Y-75561496D01*
X141999500Y-75898504D01*
X142037233Y-76233394D01*
X142098877Y-76503476D01*
X142112224Y-76561955D01*
X142178942Y-76752625D01*
X142216934Y-76922331D01*
X142214765Y-77096225D01*
X142178942Y-77247375D01*
X142112224Y-77438044D01*
X142112224Y-77438045D01*
X142112224Y-77438046D01*
X142037233Y-77766606D01*
X141999500Y-78101496D01*
X141999500Y-78438504D01*
X142037233Y-78773394D01*
X142084948Y-78982448D01*
X142112224Y-79101955D01*
X142178942Y-79292625D01*
X142216934Y-79462331D01*
X142214765Y-79636225D01*
X142178942Y-79787375D01*
X142112224Y-79978044D01*
X142089912Y-80075803D01*
X142037233Y-80306606D01*
X141999500Y-80641496D01*
X141999500Y-80978504D01*
X142037233Y-81313394D01*
X142112224Y-81641954D01*
X142223531Y-81960051D01*
X142369754Y-82263686D01*
X142455371Y-82399944D01*
X142549051Y-82549035D01*
X142549060Y-82549047D01*
X142759170Y-82812518D01*
X142767029Y-82820377D01*
X142874892Y-82956793D01*
X142948389Y-83114406D01*
X142983556Y-83284720D01*
X142978498Y-83458554D01*
X142933487Y-83626535D01*
X142850951Y-83779609D01*
X142767029Y-83879623D01*
X142759170Y-83887481D01*
X142549060Y-84150952D01*
X142549051Y-84150964D01*
X142369757Y-84436309D01*
X142369749Y-84436324D01*
X142223531Y-84739948D01*
X142112224Y-85058045D01*
X142105706Y-85086605D01*
X142037233Y-85386606D01*
X141999500Y-85721496D01*
X141999500Y-86058504D01*
X142037233Y-86393394D01*
X142112224Y-86721954D01*
X142223531Y-87040051D01*
X142369754Y-87343686D01*
X142369757Y-87343690D01*
X142549051Y-87629035D01*
X142549060Y-87629047D01*
X142759170Y-87892518D01*
X142997481Y-88130829D01*
X143260952Y-88340939D01*
X143260961Y-88340946D01*
X143546314Y-88520246D01*
X143849949Y-88666469D01*
X144168046Y-88777776D01*
X144496606Y-88852767D01*
X144831496Y-88890500D01*
X144831502Y-88890500D01*
X147168498Y-88890500D01*
X147168504Y-88890500D01*
X147503394Y-88852767D01*
X147831954Y-88777776D01*
X147831955Y-88777775D01*
X147833833Y-88777347D01*
X148006727Y-88758594D01*
X148179284Y-88780219D01*
X148342203Y-88841055D01*
X148486701Y-88937823D01*
X148604988Y-89065306D01*
X148690686Y-89216632D01*
X148739177Y-89383642D01*
X148749500Y-89507568D01*
X148749500Y-96654465D01*
X148756224Y-96714143D01*
X148784088Y-96961451D01*
X148852829Y-97262627D01*
X148922400Y-97461448D01*
X148922401Y-97461456D01*
X148954861Y-97554222D01*
X148954867Y-97554235D01*
X149088895Y-97832549D01*
X149088908Y-97832573D01*
X149253264Y-98094143D01*
X149253268Y-98094148D01*
X149445880Y-98335674D01*
X152164328Y-101054123D01*
X152391654Y-101235408D01*
X152405857Y-101246735D01*
X152667435Y-101411096D01*
X152667452Y-101411104D01*
X152945771Y-101545136D01*
X153021353Y-101571583D01*
X153021354Y-101571583D01*
X153237366Y-101647169D01*
X153538548Y-101715911D01*
X153845535Y-101750500D01*
X153845541Y-101750500D01*
X173654459Y-101750500D01*
X173654465Y-101750500D01*
X173961452Y-101715911D01*
X174262636Y-101647168D01*
X174478645Y-101571583D01*
X174554230Y-101545135D01*
X174747138Y-101452235D01*
X174832549Y-101411104D01*
X174832553Y-101411101D01*
X174832565Y-101411096D01*
X175094143Y-101246735D01*
X175335674Y-101054120D01*
X177554120Y-98835674D01*
X177746735Y-98594143D01*
X177911095Y-98332565D01*
X178045135Y-98054230D01*
X178083086Y-97945771D01*
X178147168Y-97762636D01*
X178215911Y-97461452D01*
X178215910Y-97461452D01*
X178215912Y-97461448D01*
X178243603Y-97215674D01*
X178250500Y-97154465D01*
X178250500Y-63345535D01*
X178215911Y-63038548D01*
X178188123Y-62916801D01*
X178147170Y-62737371D01*
X178147168Y-62737366D01*
X178147168Y-62737364D01*
X178045135Y-62445771D01*
X177932289Y-62211445D01*
X177911095Y-62167434D01*
X177911090Y-62167427D01*
X177911088Y-62167422D01*
X177746735Y-61905857D01*
X177746726Y-61905845D01*
X177554122Y-61664328D01*
X175835674Y-59945880D01*
X175594148Y-59753268D01*
X175594143Y-59753264D01*
X175332573Y-59588908D01*
X175332549Y-59588895D01*
X175054243Y-59454871D01*
X175054237Y-59454868D01*
X175054230Y-59454865D01*
X175054225Y-59454863D01*
X175054220Y-59454861D01*
X174978650Y-59428417D01*
X174978645Y-59428416D01*
X174762636Y-59352832D01*
X174762632Y-59352831D01*
X174762629Y-59352830D01*
X174762631Y-59352830D01*
X174461451Y-59284088D01*
X174287209Y-59264456D01*
X174154465Y-59249500D01*
X174154459Y-59249500D01*
X170499500Y-59249500D01*
X170326769Y-59229311D01*
X170163349Y-59169831D01*
X170018052Y-59074267D01*
X169898710Y-58947772D01*
X169811756Y-58797164D01*
X169761879Y-58630562D01*
X169750500Y-58500500D01*
X169750500Y-58345540D01*
X169750500Y-58345535D01*
X169715911Y-58038548D01*
X169647168Y-57737364D01*
X169545135Y-57445771D01*
X169426537Y-57199500D01*
X169426536Y-57199496D01*
X169411100Y-57167443D01*
X169411097Y-57167438D01*
X169411095Y-57167434D01*
X169246735Y-56905857D01*
X169246730Y-56905851D01*
X169246726Y-56905845D01*
X169054122Y-56664328D01*
X167335674Y-54945880D01*
X167094148Y-54753268D01*
X167094143Y-54753264D01*
X166832573Y-54588908D01*
X166832549Y-54588895D01*
X166554243Y-54454871D01*
X166554237Y-54454868D01*
X166554230Y-54454865D01*
X166554225Y-54454863D01*
X166554220Y-54454861D01*
X166478650Y-54428417D01*
X166478645Y-54428416D01*
X166262636Y-54352832D01*
X166262632Y-54352831D01*
X166262629Y-54352830D01*
X166262631Y-54352830D01*
X165961451Y-54284088D01*
X165787209Y-54264456D01*
X165654465Y-54249500D01*
X84845535Y-54249500D01*
X84721714Y-54263451D01*
X84538548Y-54284088D01*
X84237361Y-54352832D01*
X83945775Y-54454862D01*
X83945762Y-54454868D01*
X83667444Y-54588899D01*
X83667435Y-54588903D01*
X83515044Y-54684657D01*
X83405857Y-54753265D01*
X83405852Y-54753268D01*
X83405847Y-54753272D01*
X83164328Y-54945876D01*
X81195880Y-56914325D01*
X81003268Y-57155851D01*
X81003264Y-57155856D01*
X80838908Y-57417426D01*
X80838902Y-57417437D01*
X80704865Y-57695768D01*
X80700779Y-57707449D01*
X80700769Y-57707477D01*
X80602832Y-57987362D01*
X80602829Y-57987371D01*
X80534088Y-58288548D01*
X80511963Y-58484914D01*
X80499500Y-58595535D01*
X80499500Y-58595540D01*
X80499500Y-62800460D01*
X80479311Y-62973191D01*
X80419831Y-63136611D01*
X80324267Y-63281908D01*
X80280123Y-63330083D01*
X79785880Y-63824325D01*
X79593268Y-64065851D01*
X79593264Y-64065856D01*
X79428908Y-64327426D01*
X79428895Y-64327450D01*
X79294867Y-64605764D01*
X79294863Y-64605772D01*
X79273933Y-64665590D01*
X79192833Y-64897361D01*
X79192828Y-64897376D01*
X79124088Y-65198548D01*
X79114796Y-65281025D01*
X79089500Y-65505535D01*
X79089500Y-65505540D01*
X79089500Y-69677778D01*
X79069311Y-69850509D01*
X79009831Y-70013929D01*
X79004059Y-70022704D01*
X78908628Y-70435170D01*
X78917245Y-70476901D01*
X78912187Y-70650735D01*
X78890767Y-70749722D01*
X78890134Y-70751917D01*
X78822873Y-70912290D01*
X78720440Y-71052830D01*
X78588358Y-71165958D01*
X78433747Y-71245576D01*
X78264942Y-71287393D01*
X78091044Y-71289154D01*
X78051012Y-71280093D01*
X77890993Y-71324154D01*
X77855388Y-71464751D01*
X77855386Y-71464765D01*
X77834859Y-71712500D01*
X77855386Y-71960233D01*
X77855387Y-71960237D01*
X77890994Y-72100844D01*
X78052570Y-72145334D01*
X78105176Y-72134472D01*
X78279010Y-72139528D01*
X78446991Y-72184537D01*
X78600065Y-72267072D01*
X78729979Y-72382684D01*
X78829730Y-72525140D01*
X78890159Y-72673167D01*
X78890792Y-72675363D01*
X78919235Y-72846929D01*
X78909257Y-72992528D01*
X79007289Y-73416275D01*
X79053966Y-73519241D01*
X79087306Y-73689922D01*
X79089500Y-73747203D01*
X79089500Y-74106386D01*
X79069311Y-74279117D01*
X79009831Y-74442537D01*
X78914267Y-74587834D01*
X78787772Y-74707176D01*
X78637164Y-74794130D01*
X78470562Y-74844007D01*
X78296950Y-74854119D01*
X78125684Y-74823920D01*
X78078754Y-74808162D01*
X78025047Y-74788130D01*
X77745433Y-74727305D01*
X77745432Y-74727304D01*
X77745428Y-74727304D01*
X77531448Y-74712000D01*
X75388552Y-74712000D01*
X75174572Y-74727304D01*
X75174568Y-74727304D01*
X75174566Y-74727305D01*
X74894956Y-74788129D01*
X74626845Y-74888130D01*
X74626832Y-74888136D01*
X74375692Y-75025269D01*
X74146601Y-75196764D01*
X73944264Y-75399101D01*
X73772769Y-75628192D01*
X73635636Y-75879332D01*
X73635630Y-75879345D01*
X73535629Y-76147456D01*
X73485501Y-76377898D01*
X73474804Y-76427072D01*
X73459500Y-76641052D01*
X73459500Y-80783948D01*
X73474804Y-80997928D01*
X73474804Y-80997932D01*
X73474805Y-80997933D01*
X73535630Y-81277546D01*
X73635630Y-81545657D01*
X73641809Y-81559185D01*
X73695202Y-81724693D01*
X73709500Y-81870342D01*
X73709500Y-82869110D01*
X73689311Y-83041841D01*
X73629831Y-83205261D01*
X73616044Y-83231413D01*
X73542144Y-83365125D01*
X73408878Y-83686858D01*
X73312476Y-84021470D01*
X73312472Y-84021489D01*
X73254142Y-84364794D01*
X73254141Y-84364804D01*
X73254141Y-84364807D01*
X73234615Y-84712500D01*
X73254020Y-85058046D01*
X73254142Y-85060205D01*
X73312472Y-85403510D01*
X73312476Y-85403529D01*
X73390767Y-85675277D01*
X73408879Y-85738144D01*
X73478348Y-85905857D01*
X73516605Y-85998217D01*
X73564054Y-86165526D01*
X73571639Y-86339267D01*
X73538953Y-86510075D01*
X73467757Y-86668741D01*
X73361889Y-86806711D01*
X73227057Y-86916547D01*
X73070529Y-86992328D01*
X72900744Y-87029968D01*
X72824619Y-87033847D01*
X67525115Y-87033847D01*
X67525115Y-98780484D01*
X57000000Y-98780484D01*
X57000000Y-40249000D01*
X57020189Y-40076269D01*
X57079669Y-39912849D01*
X57175233Y-39767552D01*
X57301728Y-39648210D01*
X57452336Y-39561256D01*
X57618938Y-39511379D01*
X57749000Y-39500000D01*
X189251000Y-39500000D01*
X189423731Y-39520189D01*
G37*
%TD.AperFunction*%
%TD*%
M02*
