%TF.GenerationSoftware,KiCad,Pcbnew,8.0.1*%
%TF.CreationDate,2024-03-28T20:51:13+01:00*%
%TF.ProjectId,espVent,65737056-656e-4742-9e6b-696361645f70,rev?*%
%TF.SameCoordinates,Original*%
%TF.FileFunction,Soldermask,Bot*%
%TF.FilePolarity,Negative*%
%FSLAX46Y46*%
G04 Gerber Fmt 4.6, Leading zero omitted, Abs format (unit mm)*
G04 Created by KiCad (PCBNEW 8.0.1) date 2024-03-28 20:51:13*
%MOMM*%
%LPD*%
G01*
G04 APERTURE LIST*
%ADD10C,3.000000*%
%ADD11O,3.000000X3.000000*%
%ADD12R,2.200000X3.000000*%
%ADD13O,2.200000X3.000000*%
%ADD14R,2.000000X4.000000*%
%ADD15O,2.000000X4.000000*%
%ADD16R,2.000000X3.000000*%
%ADD17O,2.000000X3.000000*%
%ADD18R,2.200000X2.200000*%
%ADD19O,2.200000X2.200000*%
%ADD20C,2.200000*%
%ADD21C,2.000000*%
%ADD22R,1.100000X3.000000*%
%ADD23O,1.100000X3.000000*%
%ADD24R,4.000000X2.100000*%
%ADD25O,4.000000X2.000000*%
G04 APERTURE END LIST*
D10*
%TO.C,R3*%
X117080000Y-64000000D03*
D11*
X106920000Y-64000000D03*
%TD*%
D12*
%TO.C,D3*%
X97225000Y-71000000D03*
D13*
X99765000Y-71000000D03*
%TD*%
D14*
%TO.C,J9*%
X92380000Y-92712500D03*
D15*
X94920000Y-92712500D03*
%TD*%
D16*
%TO.C,J4*%
X172500000Y-91000000D03*
D17*
X169960000Y-91000000D03*
X167420000Y-91000000D03*
%TD*%
D18*
%TO.C,D2*%
X88420000Y-87500000D03*
D19*
X98580000Y-87500000D03*
%TD*%
D10*
%TO.C,R2*%
X91000000Y-59920000D03*
D11*
X91000000Y-70080000D03*
%TD*%
D20*
%TO.C,C1*%
X76340000Y-84712500D03*
D21*
X78840000Y-84712500D03*
%TD*%
D14*
%TO.C,Q1*%
X105920000Y-78792500D03*
D15*
X108460000Y-78792500D03*
X111000000Y-78792500D03*
%TD*%
D18*
%TO.C,D1*%
X102420000Y-87500000D03*
D19*
X112580000Y-87500000D03*
%TD*%
D14*
%TO.C,J8*%
X106380000Y-92712500D03*
D15*
X108920000Y-92712500D03*
%TD*%
D14*
%TO.C,J7*%
X76380000Y-92712500D03*
D15*
X78920000Y-92712500D03*
%TD*%
D22*
%TO.C,U4*%
X156460000Y-91000000D03*
D23*
X157730000Y-91000000D03*
X159000000Y-91000000D03*
%TD*%
D24*
%TO.C,U1*%
X123140000Y-68110000D03*
D25*
X123140000Y-70650000D03*
X123140000Y-73190000D03*
X123140000Y-75730000D03*
X123140000Y-78270000D03*
X123140000Y-80810000D03*
X123140000Y-83350000D03*
X123140000Y-85890000D03*
X146000000Y-85890000D03*
X146000000Y-83350000D03*
X146000000Y-80810000D03*
X146000000Y-78270000D03*
X146000000Y-75730000D03*
X146000000Y-73190000D03*
X146000000Y-70650000D03*
X146000000Y-68110000D03*
%TD*%
D16*
%TO.C,J1*%
X172525000Y-67025000D03*
D17*
X169985000Y-67025000D03*
X167445000Y-67025000D03*
%TD*%
D10*
%TO.C,SW1*%
X95250000Y-59750000D03*
X101750000Y-59750000D03*
X95250000Y-64250000D03*
X101750000Y-64250000D03*
%TD*%
D16*
%TO.C,J2*%
X172525000Y-75000000D03*
D17*
X169985000Y-75000000D03*
X167445000Y-75000000D03*
%TD*%
D22*
%TO.C,U2*%
X156460000Y-75000000D03*
D23*
X157730000Y-75000000D03*
X159000000Y-75000000D03*
%TD*%
D22*
%TO.C,U3*%
X156460000Y-83000000D03*
D23*
X157730000Y-83000000D03*
X159000000Y-83000000D03*
%TD*%
D10*
%TO.C,R1*%
X167080000Y-62000000D03*
D11*
X156920000Y-62000000D03*
%TD*%
D14*
%TO.C,U5*%
X76460000Y-78712500D03*
D15*
X79000000Y-78712500D03*
X81540000Y-78712500D03*
%TD*%
D14*
%TO.C,Q2*%
X96000000Y-78500000D03*
D15*
X93460000Y-78500000D03*
X90920000Y-78500000D03*
%TD*%
D20*
%TO.C,C2*%
X81840000Y-71712500D03*
D21*
X79340000Y-71712500D03*
%TD*%
D16*
%TO.C,J3*%
X172500000Y-83000000D03*
D17*
X169960000Y-83000000D03*
X167420000Y-83000000D03*
%TD*%
M02*
